<svg width="12" height="12" viewBox="0 0 12 12" fill="none" xmlns="http://www.w3.org/2000/svg">
<path d="M12 6C12 9.31371 9.31371 12 6 12C2.68629 12 0 9.31371 0 6C0 2.68629 2.68629 0 6 0C9.31371 0 12 2.68629 12 6Z" fill="#E6474A"/>
<path d="M6.00215 9.11C5.52548 9.11 5.10748 9.01467 4.74815 8.824C4.39615 8.63333 4.12115 8.36567 3.92315 8.021C3.73248 7.669 3.63715 7.262 3.63715 6.8V5.15C3.63715 4.68067 3.73248 4.27367 3.92315 3.929C4.12115 3.58433 4.39615 3.31667 4.74815 3.126C5.10748 2.93533 5.52548 2.84 6.00215 2.84C6.47882 2.84 6.89315 2.93533 7.24515 3.126C7.60448 3.31667 7.87948 3.58433 8.07015 3.929C8.26815 4.27367 8.36715 4.68067 8.36715 5.15V6.217H4.60515V6.8C4.60515 7.27667 4.72615 7.64333 4.96815 7.9C5.21015 8.14933 5.55482 8.274 6.00215 8.274C6.38348 8.274 6.69148 8.208 6.92615 8.076C7.16082 7.93667 7.30381 7.73133 7.35515 7.46H8.34515C8.27915 7.966 8.02982 8.36933 7.59715 8.67C7.17182 8.96333 6.64015 9.11 6.00215 9.11ZM7.39915 5.557V5.15C7.39915 4.67333 7.27815 4.30667 7.03615 4.05C6.80148 3.79333 6.45682 3.665 6.00215 3.665C5.55482 3.665 5.21015 3.79333 4.96815 4.05C4.72615 4.30667 4.60515 4.67333 4.60515 5.15V5.469H7.47615L7.39915 5.557Z" fill="#D9D9D9"/>
</svg>
