<svg width="472" height="392" viewBox="0 0 472 392" fill="none" xmlns="http://www.w3.org/2000/svg">
<path d="M323.5 61C318.333 64.8333 307.8 78.5 307 102.5" stroke="#48ACED" stroke-width="12" stroke-linecap="round"/>
<path d="M333.5 78.5L330.5 104" stroke="#94D5FF" stroke-width="12" stroke-linecap="round"/>
<path d="M276.5 98.5C283.5 110.833 308.8 133.1 354 123.5" stroke="#94D5FF" stroke-width="12" stroke-linecap="round"/>
<path d="M264.5 126C273.833 140 307.9 164.7 369.5 151.5" stroke="#48ACED" stroke-width="12" stroke-linecap="round"/>
<path d="M304 176C312.667 181.5 338.7 189.8 373.5 179" stroke="#94D5FF" stroke-width="12" stroke-linecap="round"/>
<path d="M345.5 203C344.667 207.667 345.4 220.5 355 234.5" stroke="#94D5FF" stroke-width="12" stroke-linecap="round"/>
<path d="M325.5 212.5C325.833 219.5 329.8 236.4 343 248" stroke="#48ACED" stroke-width="12" stroke-linecap="round"/>
<path d="M377 61.5C391 70.5 447 124.5 397.5 227.5" stroke="#94D5FF" stroke-width="12" stroke-linecap="round"/>
<path d="M314.5 252.5C328.5 257 340.619 258 350.007 258C409.657 258 458.013 209.647 458.013 150C458.013 90.3532 409.657 42 350.007 42C290.909 42 242.898 89.4615 242.013 148.345" stroke="url(#paint0_linear_2_5)" stroke-width="12"/>
<path d="M465.5 93.3385C463.653 83.2615 451.25 57.5 427.5 44.5" stroke="#48ACED" stroke-width="12" stroke-linecap="round"/>
<path d="M434 107C434.5 109.5 439.5 116.5 440.5 132.5" stroke="#48ACED" stroke-width="12" stroke-linecap="round"/>
<path d="M443 151C443.167 158.333 441.5 176.8 433.5 192" stroke="#48ACED" stroke-width="12" stroke-linecap="round"/>
<path d="M341 57.5C372 74.1667 422 132.8 374 234" stroke="#48ACED" stroke-width="12" stroke-linecap="round"/>
<circle cx="190.5" cy="260.5" r="125.5" stroke="url(#paint1_linear_2_5)" stroke-width="12"/>
<path d="M225 162C240.833 201.333 247.1 286.1 145.5 310.5" stroke="#EE589D" stroke-width="12" stroke-linecap="round"/>
<path d="M259.5 197C268.833 233.667 264.4 312.6 172 335" stroke="#FA88BD" stroke-width="12" stroke-linecap="round"/>
<path d="M282 225C288.667 258.333 284.6 329.9 215 349.5" stroke="#EE589D" stroke-width="12" stroke-linecap="round"/>
<path d="M163.5 161.5C122.333 203.333 66.5 303 172.5 367" stroke="#FFA7CF" stroke-width="12" stroke-linecap="round"/>
<path d="M117 183C102.5 196.667 76.8 237.1 90 289.5" stroke="#EE589D" stroke-width="12" stroke-linecap="round"/>
<path d="M181.5 180.5C167.333 192 140.3 227.8 145.5 279" stroke="#EE589D" stroke-width="12" stroke-linecap="round"/>
<path d="M93.5 307.5C94.3333 311.667 98.3 322.5 107.5 332.5" stroke="#EE589D" stroke-width="12" stroke-linecap="round"/>
<path d="M59 326.5C60.8333 336.5 70 359.3 92 370.5M165 240.5C167.667 245.5 176.6 257.1 191 263.5" stroke="#EE589D" stroke-width="12" stroke-linecap="round"/>
<path d="M161 267L176.5 282" stroke="#EE589D" stroke-width="12" stroke-linecap="round"/>
<path d="M25 101L220.5 241.5" stroke="#363F79" stroke-width="12" stroke-linecap="round"/>
<path d="M270.5 276.5L331.5 315.5" stroke="#363F79" stroke-width="12" stroke-linecap="round"/>
<path d="M130 27L201 188" stroke="#363F79" stroke-width="12" stroke-linecap="round"/>
<path d="M254 307.5L287 374.5" stroke="#363F79" stroke-width="12" stroke-linecap="round"/>
<circle cx="126" cy="18" r="18" fill="#7A82B8"/>
<circle cx="18" cy="96" r="18" fill="#7A82B8"/>
<defs>
<linearGradient id="paint0_linear_2_5" x1="260.475" y1="42" x2="404.945" y2="277.902" gradientUnits="userSpaceOnUse">
<stop stop-color="#4FC3F6"/>
<stop offset="1" stop-color="#2128BB"/>
</linearGradient>
<linearGradient id="paint1_linear_2_5" x1="190.5" y1="129" x2="190.5" y2="392" gradientUnits="userSpaceOnUse">
<stop stop-color="#F35A9D"/>
<stop offset="1" stop-color="#641795"/>
</linearGradient>
</defs>
</svg>
